<?xml version="1.0" encoding="iso-8859-1"?>
<!-- Generator: Adobe Illustrator 19.0.0, SVG Export Plug-In . SVG Version: 6.00 Build 0)  -->
<svg version="1.1" id="Layer_1" xmlns="http://www.w3.org/2000/svg" xmlns:xlink="http://www.w3.org/1999/xlink" x="0px" y="0px"
	 viewBox="0 0 512 512" style="enable-background:new 0 0 512 512;" xml:space="preserve">
<path style="fill:#F29A36;" d="M411.381,218.602l-27.158-108.299c-5.565-22.372-25.489-37.955-48.53-37.955H109.525
	c-23.041,0-42.965,15.583-48.53,37.955L33.837,218.602c-2.559,10.463,5.454,20.703,16.25,20.703H395.13
	C405.927,239.304,413.94,229.064,411.381,218.602z"/>
<path style="fill:#57DEFF;" d="M71.467,205.913H373.75l-21.88-87.528c-1.859-7.445-8.533-12.646-16.207-12.646H109.555
	c-7.674,0-14.348,5.201-16.207,12.646L71.467,205.913z"/>
<path style="fill:#E7812E;" d="M395.13,239.304H256V72.348h79.693c23.041,0,42.965,15.583,48.53,37.955l27.157,108.299
	C413.94,229.064,405.927,239.304,395.13,239.304z"/>
<path style="fill:#F9BC35;" d="M512,322.783v33.391c0,9.238-7.456,16.696-16.696,16.696H16.696C7.456,372.87,0,365.412,0,356.174
	V256c0-27.603,22.483-50.087,50.087-50.087H395.13C459.576,205.913,512,258.337,512,322.783z"/>
<path style="fill:#F39E31;" d="M512,322.783v33.391c0,9.238-7.456,16.696-16.696,16.696H256V205.913h139.13
	C459.576,205.913,512,258.337,512,322.783z"/>
<g>
	<path style="fill:#5C5F66;" d="M222.609,306.087h-33.391c-9.217,0-16.696-7.473-16.696-16.696s7.479-16.696,16.696-16.696h33.391
		c9.217,0,16.696,7.473,16.696,16.696S231.826,306.087,222.609,306.087z"/>
	<path style="fill:#5C5F66;" d="M100.174,439.652c-36.826,0-66.783-29.956-66.783-66.783s29.956-66.783,66.783-66.783
		s66.783,29.956,66.783,66.783S137,439.652,100.174,439.652z"/>
</g>
<path style="fill:#53565C;" d="M166.957,372.87c0-36.826-29.956-66.783-66.783-66.783v133.565
	C137,439.652,166.957,409.696,166.957,372.87z"/>
<path style="fill:#E6EEFF;" d="M100.174,339.478c-18.413,0-33.391,14.978-33.391,33.391c0,18.413,14.978,33.391,33.391,33.391
	s33.391-14.978,33.391-33.391C133.565,354.456,118.587,339.478,100.174,339.478z"/>
<path style="fill:#DAE2F2;" d="M133.565,372.87c0-18.413-14.978-33.391-33.391-33.391v66.783
	C118.587,406.261,133.565,391.283,133.565,372.87z"/>
<path style="fill:#5C5F66;" d="M411.826,439.652c-36.826,0-66.783-29.956-66.783-66.783s29.956-66.783,66.783-66.783
	s66.783,29.956,66.783,66.783S448.652,439.652,411.826,439.652z"/>
<path style="fill:#53565C;" d="M478.609,372.87c0-36.826-29.956-66.783-66.783-66.783v133.565
	C448.652,439.652,478.609,409.696,478.609,372.87z"/>
<path style="fill:#E6EEFF;" d="M411.826,339.478c-18.413,0-33.391,14.978-33.391,33.391c0,18.413,14.978,33.391,33.391,33.391
	c18.413,0,33.391-14.978,33.391-33.391C445.217,354.456,430.239,339.478,411.826,339.478z"/>
<path style="fill:#DAE2F2;" d="M445.217,372.87c0-18.413-14.978-33.391-33.391-33.391v66.783
	C430.239,406.261,445.217,391.283,445.217,372.87z"/>
<rect x="205.913" y="72.348" style="fill:#F09C12;" width="33.391" height="133.565"/>
<path style="fill:#4EC9E6;" d="M335.663,105.739H256v100.174h117.75l-21.88-87.528C350.011,110.94,343.337,105.739,335.663,105.739z
	"/>
<g>
</g>
<g>
</g>
<g>
</g>
<g>
</g>
<g>
</g>
<g>
</g>
<g>
</g>
<g>
</g>
<g>
</g>
<g>
</g>
<g>
</g>
<g>
</g>
<g>
</g>
<g>
</g>
<g>
</g>
</svg>
