<?xml version="1.0" encoding="iso-8859-1"?>
<!-- Generator: Adobe Illustrator 19.0.0, SVG Export Plug-In . SVG Version: 6.00 Build 0)  -->
<svg version="1.1" id="Layer_1" xmlns="http://www.w3.org/2000/svg" xmlns:xlink="http://www.w3.org/1999/xlink" x="0px" y="0px"
	 viewBox="0 0 512.002 512.002" style="enable-background:new 0 0 512.002 512.002;" xml:space="preserve">
<path style="fill:#CD2A00;" d="M498.66,387.084c-0.07-1.024-0.434-2.676-1.26-5.279c-0.01-0.031-0.02-0.06-0.03-0.091
	c-0.86-3.211-1.869-6.36-3.026-9.438C402.877,88.011,337.316,52.398,337.316,52.398l-0.02,0.031C302.657,19.935,256.098,0,204.858,0
	C97.897,0,10.905,86.709,10.905,193.669c0,80.108,49.64,148.848,117.71,178.318v0.004c0,0.01,0.334,0.02,0.36,0.031
	c3.301,1.401,6.798,2.696,10.191,3.916c107.178,42.202,158.258,78.177,180.1,97.121c4.282,5.226,9.104,11.26,14.324,15.546
	c0.001,0.001,0.068,1.248,0.068,1.248h-0.011c17.66,10.979,40.251,21.968,64.884,21.968c56.518,0,102.333-46.437,102.333-102.957
	C500.867,401.609,500.096,393.913,498.66,387.084z"/>
<g>
	<path style="fill:#F97C55;" d="M123.816,108.785c-42.271,41.323-47.365,108.913-11.457,155.869
		c23.076,30.175,57.428,45.922,92.114,46.452c31.575,0.482,49.127-36.272,28.628-60.293l-3.983-4.668
		c-5.687-6.664-16.762-15.339-24.913-18.553c-3.636-1.434-7.043-3.597-9.688-6.695c-10.818-12.678-7.177-33.015,8.202-41.392
		c6.444-3.51,14.238-3.974,21.203-1.666c11.506,3.814,16.456,13.109,17.715,22.032c1.269,8.996,5.52,17.31,11.418,24.22l5.155,6.041
		c20.096,23.55,58.737,13.049,63.847-17.485c5.548-33.154-2.79-68.526-26.24-96.007C251.787,65.039,173.176,60.533,123.816,108.785z
		"/>
	<path style="fill:#F97C55;" d="M421.096,434.721c-27.077,31.084-58.518,16.3-89.602-10.777
		c-31.084-27.077-50.039-56.193-22.963-87.276c27.077-31.084,74.225-34.332,105.308-7.255
		C444.924,356.489,448.172,403.637,421.096,434.721z"/>
</g>
<g style="opacity:0.26;">
	<path style="fill:#781900;" d="M497.63,381.805c-0.01-0.031-0.02-0.06-0.03-0.091c-0.86-3.211-1.869-6.36-3.026-9.438
		c-11.822-36.742-23.21-69.319-34.081-98.211c0,0-66.319,58.628-202.218,58.628c-160.022,0-229.55-58.628-229.55-58.628
		c20.235,43.903,56.313,79.006,100.011,97.924v0.004c0,0.01,0.39,0.02,0.416,0.031c3.301,1.401,6.826,2.696,10.218,3.916
		c107.178,42.202,158.273,78.178,180.113,97.121c4.282,5.226,9.11,11.437,14.331,15.724c0.001,0.001,0.076,1.426,0.076,1.426h-0.011
		c17.66,10.979,40.251,21.79,64.884,21.79c56.518,0,102.333-46.526,102.333-103.046c0-7.257-0.771-15.041-2.207-21.87
		C498.82,386.06,498.457,384.407,497.63,381.805z"/>
</g>
<g>
</g>
<g>
</g>
<g>
</g>
<g>
</g>
<g>
</g>
<g>
</g>
<g>
</g>
<g>
</g>
<g>
</g>
<g>
</g>
<g>
</g>
<g>
</g>
<g>
</g>
<g>
</g>
<g>
</g>
</svg>
