<?xml version="1.0" encoding="iso-8859-1"?>
<!-- Generator: Adobe Illustrator 19.0.0, SVG Export Plug-In . SVG Version: 6.00 Build 0)  -->
<svg version="1.1" id="Layer_1" xmlns="http://www.w3.org/2000/svg" xmlns:xlink="http://www.w3.org/1999/xlink" x="0px" y="0px"
	 viewBox="0 0 512 512" style="enable-background:new 0 0 512 512;" xml:space="preserve">
<rect x="3.444" y="100.448" style="fill:#F7B239;" width="234.188" height="370.798"/>
<g>
	<rect x="160.683" y="423.915" style="fill:#E6E6E6;" width="76.961" height="47.331"/>
	<rect x="80.405" y="423.915" style="fill:#E6E6E6;" width="80.278" height="47.331"/>
	<rect x="3.455" y="423.915" style="fill:#E6E6E6;" width="76.949" height="47.331"/>
</g>
<rect x="274.368" y="100.448" style="fill:#F7B239;" width="234.188" height="370.798"/>
<rect x="3.455" y="100.448" style="fill:#F95428;" width="234.188" height="39.915"/>
<rect x="431.607" y="423.915" style="fill:#E6E6E6;" width="76.961" height="47.331"/>
<polygon style="fill:#F95428;" points="237.632,418.748 3.444,418.748 3.444,429.08 75.227,429.08 75.227,471.246 85.559,471.246 
	85.559,429.08 155.506,429.08 155.506,471.246 165.838,471.246 165.838,429.08 237.632,429.08 "/>
<g>
	<rect x="351.328" y="423.915" style="fill:#E6E6E6;" width="80.278" height="47.331"/>
	<rect x="274.379" y="423.915" style="fill:#E6E6E6;" width="76.949" height="47.331"/>
</g>
<rect x="274.379" y="100.448" style="fill:#F95428;" width="234.188" height="39.915"/>
<g>
	<rect x="399.773" y="195.226" style="fill:#4D4D4D;" width="79.204" height="12.628"/>
	<rect x="399.773" y="239.171" style="fill:#4D4D4D;" width="79.204" height="12.628"/>
	<rect x="399.773" y="275.022" style="fill:#4D4D4D;" width="78.798" height="12.628"/>
	<rect x="439.379" y="310.862" style="fill:#4D4D4D;" width="39.204" height="12.628"/>
	<rect x="33.034" y="195.226" style="fill:#4D4D4D;" width="79.204" height="12.628"/>
	<rect x="33.034" y="239.171" style="fill:#4D4D4D;" width="79.204" height="12.628"/>
	<rect x="33.441" y="275.022" style="fill:#4D4D4D;" width="78.797" height="12.628"/>
</g>
<g>
	<rect x="121.686" y="100.448" style="fill:#E09B2D;" width="115.946" height="318.301"/>
	<rect x="274.368" y="100.448" style="fill:#E09B2D;" width="115.958" height="318.301"/>
</g>
<g>
	<path style="fill:#F95428;" d="M270.924,97.003v377.686H512V97.003C512,97.003,270.924,97.003,270.924,97.003z M505.112,103.891
		v314.857h-227.3V103.891H505.112z M426.438,467.802h-69.947V429.08h69.947V467.802z M277.812,429.08h68.347v38.721h-68.347V429.08z
		 M436.769,467.802V429.08h68.343v38.721H436.769z"/>
	<path style="fill:#F95428;" d="M241.076,474.689H0V97.003h241.076V474.689z M6.888,467.802h227.3v-363.91H6.888V467.802z"/>
</g>
<rect x="121.686" y="100.448" style="fill:#E54728;" width="268.639" height="39.915"/>
<rect x="138.917" y="40.755" style="fill:#F7B239;" width="234.188" height="370.798"/>
<rect x="138.917" y="136.105" style="fill:#E09B2D;" width="234.188" height="11.48"/>
<circle style="fill:#2BA5F7;" cx="200.621" cy="141.845" r="37.501"/>
<path style="fill:#E09B2D;" d="M200.624,184.515c-23.527,0-42.667-19.14-42.667-42.667s19.14-42.667,42.667-42.667
	s42.667,19.14,42.667,42.667C243.291,165.375,224.15,184.515,200.624,184.515z M200.624,109.514
	c-17.829,0-32.335,14.505-32.335,32.335c0,17.829,14.505,32.335,32.335,32.335s32.335-14.506,32.335-32.335
	C232.959,124.019,218.453,109.514,200.624,109.514z"/>
<g>
	<rect x="262.44" y="179.476" style="fill:#4D4D4D;" width="81.082" height="12.628"/>
	<rect x="168.903" y="215.327" style="fill:#4D4D4D;" width="174.206" height="12.628"/>
	<rect x="168.903" y="251.167" style="fill:#4D4D4D;" width="174.206" height="12.628"/>
	<rect x="168.903" y="287.018" style="fill:#4D4D4D;" width="174.206" height="12.628"/>
</g>
<g>
	<rect x="296.145" y="364.22" style="fill:#E6E6E6;" width="76.961" height="47.331"/>
	<rect x="215.867" y="364.22" style="fill:#E6E6E6;" width="80.278" height="47.331"/>
	<rect x="138.917" y="364.22" style="fill:#E6E6E6;" width="76.949" height="47.331"/>
</g>
<g>
	<rect x="138.917" y="40.752" style="fill:#F95428;" width="234.188" height="39.915"/>
	<polygon style="fill:#F95428;" points="373.106,359.053 138.917,359.053 138.917,369.385 210.701,369.385 210.701,411.55 
		221.032,411.55 221.032,369.385 290.979,369.385 290.979,411.55 301.311,411.55 301.311,369.385 373.106,369.385 	"/>
	<path style="fill:#F95428;" d="M376.546,414.997H135.47V37.311h241.076V414.997z M142.358,408.109h227.3V44.198h-227.3
		L142.358,408.109L142.358,408.109z"/>
</g>
<g>
</g>
<g>
</g>
<g>
</g>
<g>
</g>
<g>
</g>
<g>
</g>
<g>
</g>
<g>
</g>
<g>
</g>
<g>
</g>
<g>
</g>
<g>
</g>
<g>
</g>
<g>
</g>
<g>
</g>
</svg>
