<?xml version="1.0" encoding="iso-8859-1"?>
<!-- Generator: Adobe Illustrator 19.0.0, SVG Export Plug-In . SVG Version: 6.00 Build 0)  -->
<svg version="1.1" id="Layer_1" xmlns="http://www.w3.org/2000/svg" xmlns:xlink="http://www.w3.org/1999/xlink" x="0px" y="0px"
	 viewBox="0 0 513.3 513.3" style="enable-background:new 0 0 513.3 513.3;" xml:space="preserve">
<path style="fill:#FF7058;" d="M34.951,93.382c0,0-13.867-7.467-4.267-33.067c2.133-6.4,9.6-9.6,16-8.533
	c12.8,3.2,30.933,10.667,35.2,28.8c0,0,0,10.667-7.467,20.267L34.951,93.382z"/>
<path style="fill:#F8B64C;" d="M188.551,362.182c-158.933-48-136.533-221.867-129.067-264.533l-24.533-4.267
	c6.4,21.333-1.067,40.533-10.667,54.4c-26.667,42.667-33.067,97.067-10.667,141.867c32,65.067,98.133,104.533,98.133,104.533
	c144,84.267,289.067,39.467,289.067,39.467c114.133-39.467,114.133-73.6,112-81.067
	C324.018,436.848,188.551,362.182,188.551,362.182z"/>
<path style="fill:#FFD15C;" d="M188.551,362.182c0,0,135.467,74.667,323.2-10.667c0-1.067,0-2.133,0-2.133
	c-14.933-38.4-102.4-26.667-102.4-26.667c-170.667,17.067-229.333-43.733-229.333-43.733c-116.267-84.267-105.6-179.2-105.6-179.2
	l-14.933-2.133C52.018,140.315,29.618,314.182,188.551,362.182z"/>
<path style="fill:#40596B;" d="M502.151,379.248c11.733-13.867,11.733-23.467,10.667-26.667c0-1.067,0-2.133,0-2.133
	c-4.267-10.667-13.867-17.067-25.6-21.333C479.751,326.982,498.951,382.448,502.151,379.248z"/>
<ellipse transform="matrix(0.2778 -0.9606 0.9606 0.2778 -23.774 97.5145)" style="fill:#F2F2F2;" cx="52.969" cy="64.569" rx="7.466" ry="15.999"/>
<path style="fill:#4CDBC4;" d="M328.284,194.715c-45.867-41.6-100.267-54.4-131.2-58.667
	C218.418,187.248,276.018,213.915,328.284,194.715z"/>
<path style="fill:#3DC9AE;" d="M328.284,194.715C329.351,193.648,329.351,193.648,328.284,194.715
	c-19.2-53.333-78.933-80-132.267-59.733c0,0,0,1.067,1.067,1.067C229.084,140.315,282.418,153.115,328.284,194.715z"/>
<path style="fill:#40596B;" d="M324.018,232.048c-4.267-1.067-7.467-2.133-11.733-2.133c-2.133-20.267,4.267-40.533,17.067-58.667
	c2.133-3.2,7.467-5.333,11.733-5.333l0,0c9.6-1.067,11.733,7.467,6.4,13.867C333.618,194.715,325.084,213.915,324.018,232.048z"/>
<path style="fill:#FF7058;" d="M394.418,204.315c-25.6-6.4-52.267,0-75.733,17.067c-22.4-16-50.133-23.467-75.733-17.067
	c-54.4,13.867-85.333,82.133-67.2,152.533c17.067,70.4,75.733,116.267,131.2,102.4l0,0c7.467-2.133,16-2.133,23.467,0l0,0
	c54.4,13.867,114.133-32,131.2-102.4S448.818,218.182,394.418,204.315z"/>
<path style="fill:#FFFFFF;" d="M216.284,354.715c-3.2,0-6.4-2.133-7.467-6.4c-6.4-24.533-5.333-49.067,2.133-69.333
	c7.467-21.333,22.4-36.267,39.467-40.533c3.2-1.067,7.467-1.067,10.667-1.067c4.267,0,8.533,3.2,8.533,8.533s-3.2,8.533-8.533,8.533
	c-2.133,0-5.333,0-7.467,1.067c-12.8,3.2-22.4,13.867-28.8,30.933c-6.4,17.067-7.467,39.467-2.133,59.733
	c1.067,4.267-1.067,8.533-5.333,9.6C218.418,353.648,217.351,354.715,216.284,354.715z"/>
<g>
</g>
<g>
</g>
<g>
</g>
<g>
</g>
<g>
</g>
<g>
</g>
<g>
</g>
<g>
</g>
<g>
</g>
<g>
</g>
<g>
</g>
<g>
</g>
<g>
</g>
<g>
</g>
<g>
</g>
</svg>
