<?xml version="1.0" encoding="iso-8859-1"?>
<!-- Generator: Adobe Illustrator 18.1.1, SVG Export Plug-In . SVG Version: 6.00 Build 0)  -->
<svg version="1.1" id="Capa_1" xmlns="http://www.w3.org/2000/svg" xmlns:xlink="http://www.w3.org/1999/xlink" x="0px" y="0px"
	 viewBox="0 0 54.778 54.778" style="enable-background:new 0 0 54.778 54.778;" xml:space="preserve">
<g>
	<path style="fill:#010002;" d="M44.196,48.396c1.451,0,2.627,1.177,2.627,2.627c0,1.451-1.176,2.628-2.627,2.628
		c-1.45,0-2.627-1.177-2.627-2.628C41.569,49.573,42.745,48.396,44.196,48.396z M32.801,48.396c1.451,0,2.627,1.177,2.627,2.627
		c0,1.451-1.176,2.628-2.627,2.628s-2.627-1.177-2.627-2.628C30.174,49.573,31.35,48.396,32.801,48.396z M7.704,0l6.998,0.353
		L14.57,2.974L7.572,2.621L7.704,0z M22.054,23.192L23.6,23.27l0.041-0.828c-0.515,0.002-1.032-0.009-1.547-0.044L22.054,23.192z
		 M15.417,32.626c-0.026-0.51-0.05-1.021-0.074-1.53l-7.884-0.424c0.032,0.647,0.063,1.719,0.094,2.366
		c0.049,1.006,0.404,1.813,0.933,2.423c0.006,0.008,0.007,0.018,0.013,0.024c0.625,0.961,0.574,1.983,1.076,3.013
		c-0.924,4.387-3.835,8.77-4.961,13.109c-0.828,3.187,4.093,4.539,4.919,1.354c1.136-4.375,4.615-8.793,5.546-13.217
		c0.047-0.227,0.065-0.438,0.061-0.646c3.063,3.164,5.121,8.31,5.506,12.805c0.28,3.252,5.384,3.277,5.102,0
		C25.103,44.408,21.281,37.135,15.417,32.626z M10.736,9.44c2.204,0.112,4.079-1.584,4.191-3.787
		c0.037-0.757-0.142-1.474-0.478-2.096L7.636,3.213C7.238,3.796,6.988,4.492,6.949,5.249C6.837,7.454,8.534,9.329,10.736,9.44z
		 M41.02,9.626c0.096-0.218,0.149-0.458,0.149-0.711c0-0.984-0.798-1.782-1.781-1.782h-0.192V5.876c0-0.238-0.19-0.431-0.432-0.431
		c-0.236,0-0.432,0.192-0.432,0.431v1.257h-0.115c-0.982,0-1.782,0.798-1.782,1.782c0,0.253,0.056,0.493,0.149,0.711
		c-4.762,0.743-8.507,4.566-9.134,9.363c-0.426-1.035-1.43-1.868-2.833-1.69c-0.332,0.042-0.387,0.076-0.719,0.09l0.03-0.582
		l-1.547-0.078l-0.033,0.648c0.518,0.036,1.034,0.036,1.549,0.013l-0.256,5.052c0.792-0.006,1.3-0.063,2.081-0.162
		c0.789-0.1,1.316-0.471,1.624-0.965v25.119h22.911V20.408C50.258,14.958,46.244,10.441,41.02,9.626z M48.271,44.445H29.334V20.408
		c0-4.93,4.009-8.939,8.938-8.939h1.061c4.931,0,8.938,4.009,8.938,8.939V44.445z M15.092,14.419
		c-0.131-2.142-1.376-4.029-3.709-4.163c-1.951-0.111-4.295,1.562-4.164,3.71c0.318,5.22,0.306,10.448,0.289,15.674l7.874,0.396
		c0.009-3.051,0.015-6.101-0.044-9.151c2.172,0.833,4.462,1.355,6.757,1.51l0.253-5.02c-2.479-0.17-4.965-0.988-7.215-2.178
		C15.118,14.939,15.108,14.679,15.092,14.419z M43.735,27.676h-0.002h-3.188v1.741h-3.329v7.352h9.47v-7.354h-2.951L43.735,27.676
		L43.735,27.676z M43.169,29.418h-2.063v-1.179h2.063V29.418z M30.71,22.067h5.696v14.702H30.71V22.067z M31.143,38.644h15.542
		v4.127H31.143V38.644z"/>
</g>
<g>
</g>
<g>
</g>
<g>
</g>
<g>
</g>
<g>
</g>
<g>
</g>
<g>
</g>
<g>
</g>
<g>
</g>
<g>
</g>
<g>
</g>
<g>
</g>
<g>
</g>
<g>
</g>
<g>
</g>
</svg>
