<?xml version="1.0" encoding="iso-8859-1"?>
<!-- Generator: Adobe Illustrator 19.0.0, SVG Export Plug-In . SVG Version: 6.00 Build 0)  -->
<svg version="1.1" id="Layer_1" xmlns="http://www.w3.org/2000/svg" xmlns:xlink="http://www.w3.org/1999/xlink" x="0px" y="0px"
	 viewBox="0 0 304.83 304.83" style="enable-background:new 0 0 304.83 304.83;" xml:space="preserve">
<g>
	<g>
		<g>
			<rect x="252.482" y="23.199" style="fill:#5C6670;" width="39.617" height="63.267"/>
			<rect x="252.482" y="11.599" style="fill:#A4A9AD;" width="39.617" height="63.266"/>
			<rect x="263.765" y="51.451" style="fill:#333E48;" width="19.808" height="10.602"/>
			<rect x="263.765" y="24.409" style="fill:#333E48;" width="19.808" height="10.604"/>
		</g>
		<rect x="182.869" style="fill:#5E96DC;" width="69.613" height="86.464"/>
		<rect x="182.869" y="86.464" style="fill:#0071CE;" width="69.613" height="17.858"/>
	</g>
	<g>
		<g>
			<rect x="12.731" y="223.708" style="fill:#5C6670;" width="39.617" height="63.266"/>
			<rect x="12.731" y="212.107" style="fill:#A4A9AD;" width="39.617" height="63.265"/>
			<rect x="21.257" y="251.96" style="fill:#333E48;" width="19.808" height="10.601"/>
			<rect x="21.257" y="224.918" style="fill:#333E48;" width="19.808" height="10.603"/>
		</g>
		<rect x="52.348" y="200.508" style="fill:#5E96DC;" width="69.613" height="86.464"/>
		<rect x="52.349" y="286.972" style="fill:#0071CE;" width="69.613" height="17.858"/>
	</g>
	<path style="fill:#5C6670;" d="M241.616,261.745H121.961v-16.732h119.655c23.223,0,42.116-18.893,42.116-42.115
		c0-23.223-18.893-42.116-42.116-42.116H63.214c-32.449,0-58.848-26.399-58.848-58.849c0-32.448,26.399-58.848,58.848-58.848
		h119.655v16.732H63.214c-23.223,0-42.116,18.893-42.116,42.115c0,23.223,18.893,42.116,42.116,42.116h178.402
		c32.449,0,58.848,26.399,58.848,58.849S274.065,261.745,241.616,261.745z"/>
</g>
<g>
</g>
<g>
</g>
<g>
</g>
<g>
</g>
<g>
</g>
<g>
</g>
<g>
</g>
<g>
</g>
<g>
</g>
<g>
</g>
<g>
</g>
<g>
</g>
<g>
</g>
<g>
</g>
<g>
</g>
</svg>
