<?xml version="1.0" encoding="iso-8859-1"?>
<!-- Generator: Adobe Illustrator 19.0.0, SVG Export Plug-In . SVG Version: 6.00 Build 0)  -->
<svg version="1.1" id="Layer_1" xmlns="http://www.w3.org/2000/svg" xmlns:xlink="http://www.w3.org/1999/xlink" x="0px" y="0px"
	 viewBox="0 0 512.004 512.004" style="enable-background:new 0 0 512.004 512.004;" xml:space="preserve">
<path style="fill:#2D2D2D;" d="M0.004,355.202v-324c0-5.6,4.8-10.4,10.4-10.4h491.2c5.6,0,10.4,4.8,10.4,10.4v324
	C512.004,355.202-1.596,353.602,0.004,355.202z"/>
<g>
	<path style="fill:#BCBCBC;" d="M0.004,355.202v41.6c0,5.6,4.8,10.4,10.4,10.4h491.2c5.6,0,10.4-4.8,10.4-10.4v-41.6
		C512.004,355.202-1.596,356.802,0.004,355.202z"/>
	<rect x="146.404" y="480.802" style="fill:#BCBCBC;" width="219.2" height="10.4"/>
</g>
<polygon style="fill:#2D2D2D;" points="328.804,480.802 183.204,480.802 193.604,407.202 318.404,407.202 "/>
<g>
	<rect x="20.804" y="41.602" style="fill:#FFFFFF;" width="470.4" height="292.8"/>
	<rect x="57.604" y="41.602" style="fill:#FFFFFF;" width="376" height="261.6"/>
</g>
<polygon style="fill:#E81241;" points="99.204,276.802 392.804,276.802 337.604,208.802 316.004,236.002 245.604,120.802 
	188.804,215.202 152.804,177.602 "/>
<ellipse style="fill:#BCBCBC;" cx="363.204" cy="128.802" rx="34.4" ry="34.4"/>
<g>
</g>
<g>
</g>
<g>
</g>
<g>
</g>
<g>
</g>
<g>
</g>
<g>
</g>
<g>
</g>
<g>
</g>
<g>
</g>
<g>
</g>
<g>
</g>
<g>
</g>
<g>
</g>
<g>
</g>
</svg>
