<svg version="1" xmlns="http://www.w3.org/2000/svg" width="933.333" height="933.333" viewBox="0 0 700.000000 700.000000"><path d="M338.8.5c-.2.2-2.5.6-5.2.9-26.2 3.5-52.5 20-68.8 43.1-4.3 6-11.5 18.9-12 21.2-.8 4-1.8 5-6.3 5.9-6.4 1.2-27.3 7.3-35.8 10.4-45 16.5-80.4 44.1-105.8 82.4l-6.3 9.5-4.1-.4c-2.2-.2-6.6-.7-9.7-1-4.4-.5-5.8-.3-5.8.7.1.7.9 6.7 1.9 13.3 2.2 14.5 2.1 17.4-1.2 24.5-8.7 18.8-20.7 56.3-23.1 72.2-.3 2.1-1 5.7-1.5 8-.5 2.4-1.3 6.8-1.6 9.8-.4 3-.9 5.8-1.1 6.1-.2.3-.6 3.9-1 8-.3 4.1-.9 11-1.3 15.4-.9 9.3-.7 45.6.3 56.5 1.2 12.2 4.1 33.3 5.1 37 .2.8.7 3.1 1 5 .8 4.5 6.2 26.1 8.2 32.5 17.7 57 46.5 104.4 88.3 145.1l6.6 6.4-.1 31.2c0 17.2.4 33.3.9 35.8 1.4 7.1 5.6 12.7 13.1 17.6 2.9 1.8 5.5 1.9 54.5 2.2 31.4.1 52.1-.1 53-.7 1.1-.8 1.4-3.3 1.4-10.5.1-8.1.3-9.5 1.6-9.1 3.6 1 15.1 3.4 22 4.5 4.1.6 8.5 1.3 9.8 1.5 15.3 2.4 53.4 2.4 68.9-.1 1.6-.2 4.2-.6 5.8-.9 1.7-.2 4.8-.7 7-1 2.2-.4 5.6-1 7.5-1.5 1.9-.5 5.3-1.2 7.5-1.6 2.2-.3 4.2-.7 4.5-.9.3-.2.5 4 .6 9.2 0 7 .4 9.7 1.5 10.4.8.5 22.6.9 49.5.9 53.6 0 54.7-.1 62.3-6.7 2.2-1.8 5.2-5.9 6.7-9.1l2.7-5.7.1-32.7.1-32.7 12.5-12.8c19.2-19.6 30.1-33.2 43.3-54 8.1-12.8 20.6-36.4 25.2-47.3 1.5-3.6 3.3-7.9 4-9.5 2.2-5.2 8.3-22.7 10.1-29 2.7-9.8 7.3-27.8 7.8-31 .3-1.7.8-4.1 1.1-5.5 1.3-6.3 2.5-14 3.1-19.5.3-3.3.7-6.2.9-6.5.9-1.4 1.9-23.7 1.9-41.5 0-17.4-.8-36.7-1.8-42.3-.4-2.1-1.4-8.4-2.1-13.7-.3-2.2-.7-5.1-1-6.5-1.2-5.7-1.6-7.7-2.1-11-1.7-10.4-11.8-45.2-15.8-54.5-.7-1.7-3.3-7.8-5.7-13.7-2.4-5.8-4.8-10.4-5.3-10.1-.5.4-.6.2-.3-.3s1-4.8 1.7-9.4c.6-4.7 1.3-10.1 1.6-12 .3-1.9.7-5.1 1-7.1l.5-3.7-7.3.5c-4 .3-8.6.6-10.2.6-1.9.2-3.2-.4-4-1.8-.6-1.1-4-6.2-7.5-11.4-9.5-14-21.4-27.2-34.5-38.4-2.6-2.3-6-5.2-7.5-6.5-9.5-8.2-35.1-23-51.1-29.5-11.4-4.6-26.2-9.3-38.4-12.3-11.1-2.7-11.9-3.1-12.9-5.8-2.1-5.9-9.8-19.9-14.4-25.9C417.9 21.4 394.8 6.9 370 1.9c-5-1-30.4-2.2-31.2-1.4z"/></svg>