<?xml version="1.0" standalone="no"?>
<!DOCTYPE svg PUBLIC "-//W3C//DTD SVG 20010904//EN"
 "http://www.w3.org/TR/2001/REC-SVG-20010904/DTD/svg10.dtd">
<svg version="1.0" xmlns="http://www.w3.org/2000/svg"
 width="550.000000pt" height="550.000000pt" viewBox="0 0 550.000000 550.000000"
 preserveAspectRatio="xMidYMid meet">
<metadata>
Created by potrace 1.11, written by Peter Selinger 2001-2013
</metadata>
<g transform="translate(0.000000,550.000000) scale(0.100000,-0.100000)"
fill="#000000" stroke="none">
<path d="M2440 5490 c0 -6 -30 -10 -69 -10 -39 0 -73 -4 -76 -10 -3 -5 -26
-10 -50 -10 -24 0 -46 -4 -49 -9 -3 -4 -37 -11 -76 -15 -38 -4 -72 -11 -75
-17 -4 -5 -17 -9 -30 -9 -13 0 -27 -4 -30 -10 -3 -5 -22 -10 -41 -10 -19 0
-34 -4 -34 -10 0 -5 -11 -10 -24 -10 -14 0 -28 -4 -31 -10 -3 -5 -15 -10 -25
-10 -11 0 -35 -9 -54 -19 -19 -11 -36 -18 -39 -15 -2 2 -30 -9 -62 -26 -31
-16 -63 -30 -69 -30 -7 0 -35 -11 -62 -25 -27 -14 -55 -25 -61 -25 -7 0 -13
-3 -13 -8 0 -4 -15 -13 -32 -21 -18 -8 -42 -21 -53 -30 -11 -9 -33 -23 -50
-31 -16 -8 -34 -21 -38 -27 -4 -7 -16 -13 -25 -13 -10 0 -24 -9 -32 -20 -8
-11 -19 -20 -26 -20 -6 0 -19 -9 -29 -20 -10 -11 -23 -20 -30 -20 -6 0 -22
-11 -35 -25 -13 -14 -29 -25 -35 -25 -6 0 -24 -13 -40 -30 -16 -16 -34 -30
-40 -30 -6 0 -42 -31 -80 -70 -38 -38 -74 -70 -79 -70 -11 0 -96 -85 -96 -96
0 -5 -32 -41 -70 -79 -38 -38 -70 -74 -70 -80 0 -6 -14 -24 -30 -40 -16 -16
-30 -34 -30 -40 0 -6 -11 -22 -25 -35 -14 -13 -25 -29 -25 -35 0 -7 -9 -20
-20 -30 -11 -10 -20 -23 -20 -29 0 -7 -9 -18 -20 -26 -11 -8 -20 -22 -20 -32
0 -9 -6 -21 -13 -25 -6 -4 -19 -21 -27 -38 -8 -16 -22 -39 -31 -50 -9 -11 -22
-35 -30 -52 -8 -18 -17 -33 -21 -33 -5 0 -8 -6 -8 -12 0 -7 -16 -44 -35 -82
-19 -39 -35 -76 -35 -83 0 -7 -8 -27 -19 -46 -10 -18 -22 -48 -26 -65 -3 -18
-11 -34 -16 -37 -5 -4 -9 -15 -9 -26 0 -10 -5 -28 -10 -39 -6 -11 -15 -29 -20
-40 -6 -11 -10 -33 -10 -49 0 -17 -4 -33 -10 -36 -5 -3 -10 -17 -10 -30 0 -13
-4 -26 -9 -30 -6 -3 -13 -37 -17 -75 -4 -39 -11 -73 -15 -76 -5 -3 -9 -25 -9
-49 0 -24 -5 -47 -10 -50 -5 -3 -10 -33 -10 -66 0 -33 -4 -59 -10 -59 -6 0
-10 -117 -10 -330 0 -213 4 -330 10 -330 6 0 10 -26 10 -59 0 -33 5 -63 10
-66 6 -3 10 -26 10 -50 0 -24 4 -46 9 -49 4 -3 11 -37 15 -76 4 -38 11 -72 17
-75 5 -4 9 -19 9 -36 0 -16 5 -29 10 -29 6 0 10 -14 10 -30 0 -17 5 -40 12
-53 24 -46 28 -57 28 -72 0 -8 8 -29 18 -47 10 -18 17 -38 15 -45 -2 -6 1 -14
6 -18 6 -3 11 -15 11 -26 0 -10 5 -19 10 -19 6 0 10 -8 10 -18 0 -20 109 -243
132 -270 8 -9 22 -33 32 -52 23 -49 38 -72 58 -91 10 -9 18 -21 18 -26 0 -6 9
-18 20 -28 11 -10 20 -23 20 -29 0 -6 11 -23 25 -38 14 -15 25 -31 25 -36 0
-4 14 -21 30 -37 17 -16 30 -33 30 -39 0 -5 33 -44 72 -86 40 -43 84 -92 98
-110 14 -17 32 -35 42 -39 9 -3 52 -41 97 -84 44 -42 84 -77 89 -77 4 0 21
-14 37 -30 16 -17 34 -30 40 -30 6 0 22 -11 35 -25 13 -14 29 -25 35 -25 7 0
20 -9 30 -20 10 -11 22 -20 28 -20 5 0 17 -8 26 -18 19 -20 42 -35 91 -58 19
-10 43 -24 52 -32 22 -18 208 -112 223 -112 17 0 65 -24 65 -32 0 -5 9 -8 19
-8 11 0 23 -5 26 -10 3 -6 14 -10 23 -10 9 0 30 -7 46 -15 15 -8 35 -15 42
-15 14 0 25 -4 71 -28 13 -7 36 -12 52 -12 17 0 33 -5 36 -10 3 -6 17 -10 30
-10 13 0 26 -4 30 -9 3 -6 37 -13 75 -17 39 -4 73 -11 76 -15 3 -5 25 -9 49
-9 24 0 47 -4 50 -10 3 -5 37 -10 76 -10 39 0 69 -4 69 -10 0 -6 110 -10 310
-10 200 0 310 4 310 10 0 6 30 10 69 10 39 0 73 5 76 10 3 6 26 10 50 10 24 0
46 4 49 9 3 4 37 11 76 15 38 4 72 11 75 17 4 5 19 9 36 9 16 0 29 5 29 10 0
6 14 10 30 10 17 0 39 5 50 10 11 6 29 15 40 20 11 6 28 10 38 10 10 0 22 4
28 8 5 5 32 17 59 27 28 10 65 27 83 37 18 10 38 18 45 18 16 0 201 92 225
112 9 7 31 20 47 28 17 8 34 21 38 27 4 7 16 13 25 13 10 0 24 9 32 20 8 11
19 20 26 20 6 0 19 9 29 20 10 11 23 20 30 20 6 0 22 11 35 25 13 14 29 25 35
25 6 0 24 13 40 30 16 16 34 30 40 30 6 0 46 36 90 80 44 44 85 80 91 80 12 0
74 65 74 78 0 4 32 39 70 77 39 38 70 74 70 80 0 6 14 24 30 40 17 16 30 34
30 40 0 6 11 22 25 35 14 13 25 29 25 35 0 7 9 20 20 30 11 10 20 23 20 29 0
7 9 18 20 26 11 8 20 22 20 32 0 9 6 21 13 25 6 4 19 22 27 38 8 17 21 38 28
47 19 23 132 249 132 263 0 6 9 29 19 51 11 22 23 52 26 67 4 15 11 30 16 33
5 3 9 14 9 25 0 10 5 28 10 39 6 11 15 29 20 40 6 11 10 33 10 50 0 16 5 30
10 30 6 0 10 13 10 29 0 17 4 32 9 36 6 3 13 37 17 75 4 39 11 73 15 76 5 3 9
25 9 49 0 24 4 47 10 50 6 3 10 33 10 66 0 33 4 59 10 59 6 0 10 117 10 330 0
213 -4 330 -10 330 -6 0 -10 26 -10 59 0 33 -4 63 -10 66 -5 3 -10 26 -10 50
0 24 -4 46 -9 49 -4 3 -11 37 -15 76 -4 38 -11 72 -17 75 -5 4 -9 17 -9 30 0
13 -4 27 -10 30 -5 3 -10 19 -10 36 0 16 -4 38 -10 49 -5 11 -14 29 -20 40 -5
11 -10 26 -10 34 0 7 -7 27 -15 42 -8 16 -15 37 -15 46 0 9 -4 20 -10 23 -5 3
-10 15 -10 26 0 10 -4 19 -10 19 -5 0 -10 8 -10 18 0 20 -109 243 -132 270 -8
9 -22 33 -32 52 -23 49 -38 72 -58 91 -10 9 -18 21 -18 26 0 6 -9 18 -20 28
-11 10 -20 23 -20 30 0 6 -11 22 -25 35 -14 13 -25 29 -25 35 0 6 -13 24 -30
40 -16 16 -30 33 -30 37 0 5 -31 41 -70 81 -38 40 -70 77 -70 82 -1 6 -21 28
-46 50 -25 22 -81 73 -123 113 -43 39 -82 72 -87 72 -6 0 -23 14 -39 30 -16
17 -33 30 -37 30 -5 0 -21 11 -36 25 -15 14 -32 25 -38 25 -6 0 -19 9 -29 20
-10 11 -22 20 -28 20 -5 0 -17 8 -26 18 -19 20 -42 35 -91 58 -19 10 -43 24
-52 32 -22 18 -208 112 -223 112 -17 0 -65 24 -65 33 0 4 -9 7 -19 7 -11 0
-23 5 -26 11 -4 5 -12 8 -18 6 -7 -2 -27 5 -45 15 -18 10 -39 18 -47 18 -9 0
-24 5 -35 10 -11 6 -29 15 -40 20 -11 6 -33 10 -50 10 -16 0 -30 5 -30 10 0 6
-13 10 -29 10 -17 0 -32 4 -36 9 -3 6 -37 13 -75 17 -39 4 -73 11 -76 15 -3 5
-25 9 -49 9 -24 0 -47 5 -50 10 -3 6 -37 10 -76 10 -39 0 -69 4 -69 10 0 6
-110 10 -310 10 -200 0 -310 -4 -310 -10z m401 -881 c66 -21 94 -38 140 -82
43 -41 55 -60 88 -140 16 -40 13 -154 -5 -207 -28 -80 -94 -155 -164 -186 -65
-29 -85 -34 -143 -34 -112 0 -206 48 -272 138 -128 174 -51 424 152 502 55 21
154 25 204 9z m1209 -449 c0 -11 -7 -62 -15 -112 -8 -51 -19 -124 -25 -163 -6
-38 -15 -95 -20 -125 -5 -30 -14 -89 -20 -130 -6 -41 -16 -99 -22 -128 l-12
-54 65 -62 c149 -144 238 -266 315 -432 l44 -94 57 0 c31 0 94 5 140 12 100
14 108 10 94 -53 -6 -24 -15 -75 -21 -114 -6 -38 -15 -92 -20 -120 -5 -27 -16
-99 -25 -160 -9 -60 -20 -132 -25 -160 -13 -71 -20 -112 -26 -172 -8 -63 -14
-66 -131 -62 l-84 4 -36 -65 c-56 -101 -131 -206 -205 -285 l-68 -73 -2 -278
-3 -278 -30 -8 c-50 -15 -334 -14 -390 1 -119 31 -183 82 -205 160 -14 53 -21
58 -64 41 -57 -21 -226 -45 -395 -56 -105 -7 -231 4 -381 31 -82 15 -94 11
-103 -33 -7 -32 -50 -80 -92 -103 -48 -26 -134 -47 -225 -53 -103 -8 -290 9
-302 26 -4 7 -8 118 -8 245 l0 233 -45 41 c-202 186 -280 294 -366 504 -58
142 -82 281 -76 445 3 74 8 144 11 155 6 18 1 22 -41 33 -105 28 -181 55 -232
84 -47 26 -60 29 -103 23 -73 -10 -239 24 -296 61 -33 22 -28 82 9 103 23 13
34 11 110 -13 47 -14 90 -26 96 -26 17 0 24 29 13 50 -23 44 -4 198 38 308 37
97 108 172 184 198 43 14 57 15 92 4 100 -30 136 -87 136 -213 0 -79 -7 -117
-32 -177 -30 -70 -66 -129 -102 -168 -23 -24 -41 -48 -41 -54 0 -18 171 -65
199 -55 8 3 18 19 22 34 10 44 98 213 148 285 168 241 443 440 747 542 223 74
397 100 627 92 151 -5 193 -9 327 -31 l40 -7 65 87 c116 155 229 243 371 287
124 40 155 45 252 47 81 1 87 0 87 -19z"/>
<path d="M2610 3519 c-147 -11 -201 -24 -222 -49 -25 -30 -23 -56 7 -85 28
-29 17 -29 175 -10 146 17 328 19 455 5 81 -10 92 -9 115 8 35 26 38 71 7 100
-21 19 -41 24 -138 32 -128 11 -259 11 -399 -1z"/>
<path d="M1130 3376 c-59 -33 -120 -186 -120 -304 0 -104 47 -107 120 -7 58
81 82 145 84 224 1 45 -4 64 -18 80 -22 24 -32 25 -66 7z"/>
<path d="M3748 2872 c-37 -22 -62 -76 -54 -115 4 -17 21 -46 38 -64 27 -28 39
-33 79 -33 40 0 53 5 78 31 27 26 31 38 31 82 0 29 -6 59 -13 67 -39 50 -108
64 -159 32z"/>
</g>
</svg>
